<svg width="24" height="24" viewBox="0 0 24 24" fill="none" xmlns="http://www.w3.org/2000/svg">
<path d="M17.77 16.72L8.55 7.5H16.72C16.9189 7.5 17.1097 7.42098 17.2503 7.28033C17.391 7.13968 17.47 6.94891 17.47 6.75C17.47 6.55109 17.391 6.36032 17.2503 6.21967C17.1097 6.07902 16.9189 6 16.72 6H7.72C7.26109 6.00787 6.82364 6.19571 6.50191 6.52305C6.18018 6.85039 5.99993 7.29102 6 7.75V16.75C6 16.9489 6.07902 17.1397 6.21967 17.2803C6.36032 17.421 6.55109 17.5 6.75 17.5C6.94891 17.5 7.13968 17.421 7.28033 17.2803C7.42098 17.1397 7.5 16.9489 7.5 16.75V8.56L16.72 17.78C16.7887 17.8537 16.8715 17.9128 16.9635 17.9538C17.0555 17.9948 17.1548 18.0168 17.2555 18.0186C17.3562 18.0204 17.4562 18.0018 17.5496 17.9641C17.643 17.9264 17.7278 17.8703 17.799 17.799C17.8703 17.7278 17.9264 17.643 17.9641 17.5496C18.0018 17.4562 18.0204 17.3562 18.0186 17.2555C18.0168 17.1548 17.9948 17.0555 17.9538 16.9635C17.9128 16.8715 17.8537 16.7887 17.78 16.72H17.77Z" fill="#F7A01D"/>
</svg>
