<svg width="24" height="24" viewBox="0 0 24 24" fill="none" xmlns="http://www.w3.org/2000/svg">
<path d="M14.2859 16.9998C14.1253 17.0021 13.9694 16.9452 13.8478 16.8401L9.55612 13.2152C9.38177 13.0662 9.24175 12.881 9.14574 12.6724C9.04972 12.4637 9 12.2367 9 12.007C9 11.7772 9.04972 11.5502 9.14574 11.3416C9.24175 11.133 9.38177 10.9477 9.55612 10.7987L13.8478 7.17388C13.9178 7.11076 14.0003 7.063 14.0898 7.03364C14.1793 7.00428 14.2739 6.99397 14.3676 7.00337C14.4613 7.01277 14.5521 7.04167 14.634 7.08822C14.7159 7.13477 14.7873 7.19796 14.8435 7.27373C14.9588 7.42008 15.0137 7.60518 14.9971 7.79092C14.9804 7.97667 14.8934 8.14895 14.7539 8.27231L10.4622 11.8871C10.4445 11.8995 10.4298 11.9159 10.4194 11.935C10.4091 11.954 10.4033 11.9753 10.4025 11.997C10.4021 12.0176 10.4075 12.0378 10.4181 12.0555C10.4287 12.0732 10.444 12.0875 10.4622 12.0968L14.7539 15.7217C14.8934 15.845 14.9804 16.0173 14.9971 16.203C15.0137 16.3888 14.9588 16.5739 14.8435 16.7202C14.7803 16.8088 14.6965 16.8806 14.5993 16.9294C14.5021 16.9781 14.3945 17.0023 14.2859 16.9998Z" fill="#2E3238"/>
</svg>
