<svg width="17" height="16" viewBox="0 0 17 16" fill="none" xmlns="http://www.w3.org/2000/svg">
<g clip-path="url(#clip0_855_10711)">
<path d="M8.5 16C12.9032 16 16.5 12.3968 16.5 8C16.5 3.5968 12.8968 0 8.5 0C4.0968 0 0.5 3.6032 0.5 8C0.5 12.4032 4.1032 16 8.5 16Z" fill="url(#paint0_linear_855_10711)"/>
<path d="M10.8168 9.72801L13.0824 8.42241C13.204 8.35201 13.2744 8.22401 13.2744 8.08321V5.47201C13.2744 5.33121 13.1976 5.20321 13.0824 5.13281L10.8168 3.82721C10.6952 3.75681 10.548 3.75681 10.4264 3.82721L8.1608 5.13281C8.0392 5.20321 7.9688 5.33121 7.9688 5.47201V10.144L6.3816 11.0592L4.7944 10.144V8.31361L6.3816 7.39841L7.4312 8.00001V6.77121L6.58 6.27841C6.5224 6.24641 6.452 6.22721 6.388 6.22721C6.3176 6.22721 6.2536 6.24641 6.196 6.27841L3.9304 7.58401C3.8088 7.65441 3.7384 7.78241 3.7384 7.92321V10.5344C3.7384 10.6752 3.8152 10.8032 3.9304 10.8736L6.196 12.1792C6.3176 12.2496 6.4648 12.2496 6.5864 12.1792L8.852 10.8736C8.9736 10.8032 9.044 10.6752 9.044 10.5344V5.86241L9.0696 5.84321L10.6312 4.94081L12.2184 5.85601V7.68641L10.6312 8.60161L9.588 8.00001V9.22881L10.4392 9.72161C10.5608 9.79201 10.708 9.79201 10.8296 9.72161L10.8168 9.72801Z" fill="white"/>
</g>
<defs>
<linearGradient id="paint0_linear_855_10711" x1="-2.4263" y1="1.29927" x2="14.0729" y2="11.4177" gradientUnits="userSpaceOnUse">
<stop stop-color="#A229C5"/>
<stop offset="1" stop-color="#7B3FE4"/>
</linearGradient>
<clipPath id="clip0_855_10711">
<rect width="16" height="16" fill="white" transform="translate(0.5)"/>
</clipPath>
</defs>
</svg>
