<svg width="16" height="10" viewBox="0 0 16 10" fill="none" xmlns="http://www.w3.org/2000/svg">
<path d="M15.2745 9.425C14.9999 9.69899 14.629 9.85455 14.2412 9.85834H10.9078C10.7421 9.85834 10.5831 9.79249 10.4659 9.67528C10.3487 9.55807 10.2828 9.3991 10.2828 9.23334C10.2828 9.06758 10.3487 8.90861 10.4659 8.7914C10.5831 8.67418 10.7421 8.60834 10.9078 8.60834H13.5745L9.45782 4.49167C9.43912 4.47174 9.41653 4.45586 9.39145 4.445C9.36637 4.43414 9.33932 4.42854 9.31199 4.42854C9.28466 4.42854 9.25762 4.43414 9.23254 4.445C9.20745 4.45586 9.18486 4.47174 9.16616 4.49167L7.41616 6.24167C7.14283 6.51392 6.77277 6.66678 6.38699 6.66678C6.00121 6.66678 5.63115 6.51392 5.35782 6.24167L1.01616 1.9C0.899115 1.78282 0.833374 1.62396 0.833374 1.45834C0.833374 1.29271 0.899115 1.13386 1.01616 1.01667C1.07386 0.958243 1.14265 0.911932 1.2185 0.88045C1.29434 0.848968 1.37571 0.832948 1.45782 0.833336C1.53994 0.832948 1.62131 0.848968 1.69715 0.88045C1.773 0.911932 1.84179 0.958243 1.89949 1.01667L6.24116 5.35834C6.28105 5.39464 6.33305 5.41476 6.38699 5.41476C6.44093 5.41476 6.49293 5.39464 6.53282 5.35834L8.28282 3.60834C8.55615 3.33609 8.92621 3.18323 9.31199 3.18323C9.69777 3.18323 10.0678 3.33609 10.3412 3.60834L14.4495 7.71667V5.06667C14.4495 4.90091 14.5153 4.74194 14.6325 4.62473C14.7498 4.50752 14.9087 4.44167 15.0745 4.44167C15.1569 4.44055 15.2387 4.45595 15.315 4.48696C15.3913 4.51798 15.4607 4.56397 15.5189 4.62223C15.5772 4.68049 15.6232 4.74984 15.6542 4.82617C15.6852 4.90251 15.7006 4.98428 15.6995 5.06667V8.4C15.6993 8.78451 15.5465 9.1532 15.2745 9.425Z" fill="#93000A"/>
</svg>
