<svg width="16" height="16" viewBox="0 0 16 16" fill="none" xmlns="http://www.w3.org/2000/svg">
<path d="M9.38247 2.59034C9.87926 2.0521 10.1277 1.78297 10.3916 1.62599C11.0285 1.24721 11.8127 1.23543 12.4602 1.59492C12.7286 1.74391 12.9846 2.00545 13.4967 2.52855C14.0088 3.05164 14.2648 3.31319 14.4106 3.58732C14.7625 4.24879 14.751 5.0499 14.3802 5.70051C14.2265 5.97015 13.9631 6.22389 13.4362 6.73138L7.16708 12.7696C6.16858 13.7313 5.66933 14.2122 5.04537 14.4559C4.42141 14.6996 3.73547 14.6816 2.36358 14.6458L2.17692 14.6409C1.75927 14.63 1.55045 14.6245 1.42906 14.4867C1.30767 14.349 1.32424 14.1363 1.35739 13.7108L1.37538 13.4798C1.46867 12.2824 1.51532 11.6837 1.74914 11.1455C1.98296 10.6073 2.38629 10.1704 3.19295 9.29637L9.38247 2.59034Z" stroke="#2E3238" stroke-width="1.3" stroke-linejoin="round"/>
<path d="M8.66666 2.66675L13.3333 7.33341" stroke="#2E3238" stroke-width="1.3" stroke-linejoin="round"/>
<path d="M9.33333 14.6667L14.6667 14.6667" stroke="#2E3238" stroke-width="1.3" stroke-linecap="round" stroke-linejoin="round"/>
</svg>
