<svg width="49" height="49" viewBox="0 0 49 49" fill="none" xmlns="http://www.w3.org/2000/svg">
<path d="M21.166 42.6672C12.666 41.1672 6.16602 33.7672 6.16602 24.8672C6.16602 14.9672 14.266 6.86719 24.166 6.86719C34.066 6.86719 42.166 14.9672 42.166 24.8672C42.166 33.7672 35.666 41.1672 27.166 42.6672L26.166 41.8672H22.166L21.166 42.6672Z" fill="url(#paint0_linear_858_27450)"/>
<path d="M31.166 29.8672L31.966 24.8672H27.166V21.3672C27.166 19.9672 27.666 18.8672 29.866 18.8672H32.166V14.2672C30.866 14.0672 29.466 13.8672 28.166 13.8672C24.066 13.8672 21.166 16.3672 21.166 20.8672V24.8672H16.666V29.8672H21.166V42.5672C22.166 42.7672 23.166 42.8672 24.166 42.8672C25.166 42.8672 26.166 42.7672 27.166 42.5672V29.8672H31.166Z" fill="white"/>
<defs>
<linearGradient id="paint0_linear_858_27450" x1="24.166" y1="41.6212" x2="24.166" y2="6.86719" gradientUnits="userSpaceOnUse">
<stop stop-color="#0062E0"/>
<stop offset="1" stop-color="#19AFFF"/>
</linearGradient>
</defs>
</svg>
