<svg width="49" height="49" viewBox="0 0 49 49" fill="none" xmlns="http://www.w3.org/2000/svg">
<path fill-rule="evenodd" clip-rule="evenodd" d="M40.486 25.2536C40.486 24.0482 40.3779 22.8891 40.1769 21.7764H24.166V28.3523H33.3151C32.921 30.4773 31.7233 32.2777 29.9228 33.4832V37.7487H35.4169C38.6315 34.7891 40.486 30.4309 40.486 25.2536Z" fill="#4285F4"/>
<path fill-rule="evenodd" clip-rule="evenodd" d="M24.1665 41.8672C28.7565 41.8672 32.6046 40.3449 35.4174 37.7485L29.9233 33.4831C28.401 34.5031 26.4537 35.1058 24.1665 35.1058C19.7387 35.1058 15.991 32.1154 14.6542 28.0972H8.97461V32.5017C11.7719 38.0576 17.521 41.8672 24.1665 41.8672Z" fill="#34A853"/>
<path fill-rule="evenodd" clip-rule="evenodd" d="M14.6538 28.0975C14.3138 27.0775 14.1206 25.9879 14.1206 24.8675C14.1206 23.747 14.3138 22.6575 14.6538 21.6375V17.2329H8.9742C7.82283 19.5279 7.16602 22.1243 7.16602 24.8675C7.16602 27.6107 7.82283 30.207 8.9742 32.502L14.6538 28.0975Z" fill="#FBBC05"/>
<path fill-rule="evenodd" clip-rule="evenodd" d="M24.1665 14.6286C26.6624 14.6286 28.9033 15.4863 30.6651 17.1708L35.541 12.2949C32.5969 9.55174 28.7487 7.86719 24.1665 7.86719C17.521 7.86719 11.7719 11.6767 8.97461 17.2327L14.6542 21.6372C15.991 17.619 19.7387 14.6286 24.1665 14.6286Z" fill="#EA4335"/>
</svg>
