<svg width="21" height="20" viewBox="0 0 21 20" fill="none" xmlns="http://www.w3.org/2000/svg">
<path d="M17.2745 6.26668C16.9999 5.99269 16.629 5.83713 16.2412 5.83334H12.9078C12.7421 5.83334 12.5831 5.89919 12.4659 6.0164C12.3487 6.13361 12.2828 6.29258 12.2828 6.45834C12.2828 6.6241 12.3487 6.78308 12.4659 6.90029C12.5831 7.0175 12.7421 7.08334 12.9078 7.08334H15.5745L11.4578 11.2C11.4391 11.2199 11.4165 11.2358 11.3914 11.2467C11.3664 11.2575 11.3393 11.2631 11.312 11.2631C11.2847 11.2631 11.2576 11.2575 11.2325 11.2467C11.2075 11.2358 11.1849 11.2199 11.1662 11.2L9.41616 9.45001C9.14283 9.17776 8.77277 9.0249 8.38699 9.0249C8.00121 9.0249 7.63115 9.17776 7.35782 9.45001L3.01616 13.7917C2.89912 13.9089 2.83337 14.0677 2.83337 14.2333C2.83337 14.399 2.89912 14.5578 3.01616 14.675C3.07386 14.7334 3.14265 14.7797 3.2185 14.8112C3.29434 14.8427 3.37571 14.8587 3.45782 14.8583C3.53994 14.8587 3.62131 14.8427 3.69715 14.8112C3.773 14.7797 3.84179 14.7334 3.89949 14.675L8.24116 10.3333C8.28105 10.297 8.33305 10.2769 8.38699 10.2769C8.44093 10.2769 8.49293 10.297 8.53282 10.3333L10.2828 12.0833C10.5561 12.3556 10.9262 12.5085 11.312 12.5085C11.6978 12.5085 12.0678 12.3556 12.3412 12.0833L16.4495 7.97501V10.625C16.4495 10.7908 16.5153 10.9497 16.6325 11.067C16.7498 11.1842 16.9087 11.25 17.0745 11.25C17.1569 11.2511 17.2387 11.2357 17.315 11.2047C17.3913 11.1737 17.4607 11.1277 17.5189 11.0695C17.5772 11.0112 17.6232 10.9418 17.6542 10.8655C17.6852 10.7892 17.7006 10.7074 17.6995 10.625V7.29168C17.6993 6.90717 17.5465 6.53848 17.2745 6.26668Z" fill="#17564B"/>
</svg>
