<svg width="49" height="49" viewBox="0 0 49 49" fill="none" xmlns="http://www.w3.org/2000/svg">
<path d="M24.1669 7.4126C19.4267 7.4126 18.8318 7.43333 16.97 7.51805C15.1119 7.60314 13.8436 7.89733 12.7338 8.32896C11.5858 8.77478 10.612 9.37114 9.64188 10.3417C8.671 11.3119 8.07466 12.2857 7.6274 13.4333C7.19468 14.5435 6.90015 15.8122 6.81651 17.6697C6.73324 19.5315 6.71143 20.1268 6.71143 24.8671C6.71143 29.6075 6.73252 30.2006 6.81688 32.0624C6.90233 33.9206 7.1965 35.189 7.62776 36.2988C8.07393 37.4468 8.67028 38.4206 9.64079 39.3908C10.6106 40.3617 11.5844 40.9595 12.7316 41.4053C13.8421 41.837 15.1108 42.1311 16.9686 42.2162C18.8303 42.301 19.4249 42.3217 24.1647 42.3217C28.9053 42.3217 29.4984 42.301 31.3601 42.2162C33.2183 42.1311 34.488 41.837 35.5986 41.4053C36.7462 40.9595 37.7185 40.3617 38.6883 39.3908C39.6592 38.4206 40.2555 37.4468 40.7028 36.2991C41.1318 35.189 41.4264 33.9202 41.5136 32.0628C41.5973 30.201 41.6191 29.6075 41.6191 24.8671C41.6191 20.1268 41.5973 19.5319 41.5136 17.6701C41.4264 15.8119 41.1318 14.5435 40.7028 13.4337C40.2555 12.2857 39.6592 11.3119 38.6883 10.3417C37.7174 9.37078 36.7465 8.77442 35.5975 8.32896C34.4848 7.89733 33.2157 7.60314 31.3576 7.51805C29.4958 7.43333 28.9031 7.4126 24.1614 7.4126H24.1669ZM22.6011 10.5581C23.0658 10.5573 23.5844 10.5581 24.1669 10.5581C28.8271 10.5581 29.3795 10.5748 31.2198 10.6584C32.9215 10.7362 33.8451 11.0206 34.4604 11.2595C35.2749 11.5759 35.8556 11.9541 36.4662 12.565C37.0771 13.1759 37.4552 13.7577 37.7723 14.5722C38.0112 15.1868 38.2959 16.1104 38.3734 17.8122C38.457 19.6522 38.4752 20.205 38.4752 24.8631C38.4752 29.5213 38.457 30.0741 38.3734 31.9141C38.2956 33.6159 38.0112 34.5395 37.7723 35.1541C37.4559 35.9686 37.0771 36.5486 36.4662 37.1591C35.8553 37.7701 35.2753 38.1482 34.4604 38.4646C33.8459 38.7046 32.9215 38.9882 31.2198 39.066C29.3798 39.1497 28.8271 39.1679 24.1669 39.1679C19.5063 39.1679 18.954 39.1497 17.114 39.066C15.4123 38.9875 14.4886 38.7031 13.873 38.4642C13.0585 38.1479 12.4767 37.7697 11.8658 37.1588C11.2549 36.5479 10.8768 35.9675 10.5597 35.1526C10.3208 34.5381 10.0361 33.6144 9.9586 31.9126C9.87497 30.0726 9.85824 29.5199 9.85824 24.8588C9.85824 20.1977 9.87497 19.6479 9.9586 17.8079C10.0364 16.1061 10.3208 15.1824 10.5597 14.5671C10.876 13.7526 11.2549 13.1708 11.8658 12.5599C12.4767 11.949 13.0585 11.5708 13.873 11.2537C14.4883 11.0137 15.4123 10.7301 17.114 10.6519C18.7242 10.5791 19.3481 10.5573 22.6011 10.5537V10.5581ZM33.4837 13.4562C32.3274 13.4562 31.3892 14.3933 31.3892 15.5501C31.3892 16.7064 32.3274 17.6446 33.4837 17.6446C34.64 17.6446 35.5782 16.7064 35.5782 15.5501C35.5782 14.3937 34.64 13.4555 33.4837 13.4555V13.4562ZM24.1669 15.9035C19.2169 15.9035 15.2035 19.917 15.2035 24.8671C15.2035 29.8173 19.2169 33.829 24.1669 33.829C29.1169 33.829 33.1288 29.8173 33.1288 24.8671C33.1288 19.917 29.1166 15.9035 24.1665 15.9035H24.1669ZM24.1669 19.049C27.3799 19.049 29.9849 21.6537 29.9849 24.8671C29.9849 28.0802 27.3799 30.6853 24.1669 30.6853C20.9535 30.6853 18.3489 28.0802 18.3489 24.8671C18.3489 21.6537 20.9535 19.049 24.1669 19.049Z" fill="url(#paint0_radial_858_27449)"/>
<path d="M24.1669 7.4126C19.4267 7.4126 18.8318 7.43333 16.97 7.51805C15.1119 7.60314 13.8436 7.89733 12.7338 8.32896C11.5858 8.77478 10.612 9.37114 9.64188 10.3417C8.671 11.3119 8.07466 12.2857 7.6274 13.4333C7.19468 14.5435 6.90015 15.8122 6.81651 17.6697C6.73324 19.5315 6.71143 20.1268 6.71143 24.8671C6.71143 29.6075 6.73252 30.2006 6.81688 32.0624C6.90233 33.9206 7.1965 35.189 7.62776 36.2988C8.07393 37.4468 8.67028 38.4206 9.64079 39.3908C10.6106 40.3617 11.5844 40.9595 12.7316 41.4053C13.8421 41.837 15.1108 42.1311 16.9686 42.2162C18.8303 42.301 19.4249 42.3217 24.1647 42.3217C28.9053 42.3217 29.4984 42.301 31.3601 42.2162C33.2183 42.1311 34.488 41.837 35.5986 41.4053C36.7462 40.9595 37.7185 40.3617 38.6883 39.3908C39.6592 38.4206 40.2555 37.4468 40.7028 36.2991C41.1318 35.189 41.4264 33.9202 41.5136 32.0628C41.5973 30.201 41.6191 29.6075 41.6191 24.8671C41.6191 20.1268 41.5973 19.5319 41.5136 17.6701C41.4264 15.8119 41.1318 14.5435 40.7028 13.4337C40.2555 12.2857 39.6592 11.3119 38.6883 10.3417C37.7174 9.37078 36.7465 8.77442 35.5975 8.32896C34.4848 7.89733 33.2157 7.60314 31.3576 7.51805C29.4958 7.43333 28.9031 7.4126 24.1614 7.4126H24.1669ZM22.6011 10.5581C23.0658 10.5573 23.5844 10.5581 24.1669 10.5581C28.8271 10.5581 29.3795 10.5748 31.2198 10.6584C32.9215 10.7362 33.8451 11.0206 34.4604 11.2595C35.2749 11.5759 35.8556 11.9541 36.4662 12.565C37.0771 13.1759 37.4552 13.7577 37.7723 14.5722C38.0112 15.1868 38.2959 16.1104 38.3734 17.8122C38.457 19.6522 38.4752 20.205 38.4752 24.8631C38.4752 29.5213 38.457 30.0741 38.3734 31.9141C38.2956 33.6159 38.0112 34.5395 37.7723 35.1541C37.4559 35.9686 37.0771 36.5486 36.4662 37.1591C35.8553 37.7701 35.2753 38.1482 34.4604 38.4646C33.8459 38.7046 32.9215 38.9882 31.2198 39.066C29.3798 39.1497 28.8271 39.1679 24.1669 39.1679C19.5063 39.1679 18.954 39.1497 17.114 39.066C15.4123 38.9875 14.4886 38.7031 13.873 38.4642C13.0585 38.1479 12.4767 37.7697 11.8658 37.1588C11.2549 36.5479 10.8768 35.9675 10.5597 35.1526C10.3208 34.5381 10.0361 33.6144 9.9586 31.9126C9.87497 30.0726 9.85824 29.5199 9.85824 24.8588C9.85824 20.1977 9.87497 19.6479 9.9586 17.8079C10.0364 16.1061 10.3208 15.1824 10.5597 14.5671C10.876 13.7526 11.2549 13.1708 11.8658 12.5599C12.4767 11.949 13.0585 11.5708 13.873 11.2537C14.4883 11.0137 15.4123 10.7301 17.114 10.6519C18.7242 10.5791 19.3481 10.5573 22.6011 10.5537V10.5581ZM33.4837 13.4562C32.3274 13.4562 31.3892 14.3933 31.3892 15.5501C31.3892 16.7064 32.3274 17.6446 33.4837 17.6446C34.64 17.6446 35.5782 16.7064 35.5782 15.5501C35.5782 14.3937 34.64 13.4555 33.4837 13.4555V13.4562ZM24.1669 15.9035C19.2169 15.9035 15.2035 19.917 15.2035 24.8671C15.2035 29.8173 19.2169 33.829 24.1669 33.829C29.1169 33.829 33.1288 29.8173 33.1288 24.8671C33.1288 19.917 29.1166 15.9035 24.1665 15.9035H24.1669ZM24.1669 19.049C27.3799 19.049 29.9849 21.6537 29.9849 24.8671C29.9849 28.0802 27.3799 30.6853 24.1669 30.6853C20.9535 30.6853 18.3489 28.0802 18.3489 24.8671C18.3489 21.6537 20.9535 19.049 24.1669 19.049Z" fill="url(#paint1_radial_858_27449)"/>
<defs>
<radialGradient id="paint0_radial_858_27449" cx="0" cy="0" r="1" gradientUnits="userSpaceOnUse" gradientTransform="translate(15.9838 45.0104) rotate(-90) scale(34.5975 32.1771)">
<stop stop-color="#FFDD55"/>
<stop offset="0.1" stop-color="#FFDD55"/>
<stop offset="0.5" stop-color="#FF543E"/>
<stop offset="1" stop-color="#C837AB"/>
</radialGradient>
<radialGradient id="paint1_radial_858_27449" cx="0" cy="0" r="1" gradientUnits="userSpaceOnUse" gradientTransform="translate(0.864207 9.92739) rotate(78.6811) scale(15.4652 63.7458)">
<stop stop-color="#3771C8"/>
<stop offset="0.128" stop-color="#3771C8"/>
<stop offset="1" stop-color="#6600FF" stop-opacity="0"/>
</radialGradient>
</defs>
</svg>
