<svg width="23" height="23" viewBox="0 0 23 23" fill="none" xmlns="http://www.w3.org/2000/svg">
<g clip-path="url(#clip0_855_10523)">
<path d="M13.9425 7.27545L14.4166 6.06461M13.9425 7.27545L5.24998 19.2921C4.52063 19.2921 3.82116 19.0024 3.30544 18.4867C2.78971 17.9709 2.49998 17.2715 2.49998 16.5421V10.1254C2.49998 9.3961 2.78971 8.69663 3.30544 8.1809C3.82116 7.66518 4.52063 7.37545 5.24998 7.37545H7.40415L10.0166 1.49961M13.9425 7.27545H13.9033V7.37545L13.9964 7.41191L14.0107 7.37545L13.9425 7.27545ZM14.4166 6.06461C14.6302 5.49067 14.7013 4.8735 14.6239 4.26604C14.5465 3.65858 14.3229 3.07896 13.9722 2.57691C13.6216 2.07485 13.1544 1.66534 12.6108 1.38351C12.0671 1.10168 11.4632 0.955935 10.8508 0.95878C10.6745 0.959148 10.502 1.01037 10.354 1.10629C10.2061 1.20222 10.0889 1.33879 10.0166 1.49961M14.4166 6.06461L14.3235 6.02815L14.3232 6.02894M14.4166 6.06461L16.9191 19.1921M10.0166 1.49961L10.108 1.54024L10.1079 1.54048M10.0166 1.49961L10.1079 1.54062L7.49552 7.41607L7.46912 7.47545H7.40415H5.24998C4.54716 7.47545 3.87312 7.75464 3.37615 8.25161C2.87917 8.74859 2.59998 9.42262 2.59998 10.1254V16.5421C2.59998 17.2449 2.87917 17.919 3.37615 18.4159C3.87312 18.9129 4.54716 19.1921 5.24998 19.1921L16.9191 19.1921M16.9191 19.1921C16.9191 19.1921 16.9191 19.1921 16.9191 19.1921C17.5391 19.1919 18.1393 18.9744 18.6154 18.5773C19.0915 18.1803 19.4133 17.629 19.5249 17.0192C19.5249 17.0192 19.5249 17.0191 19.5249 17.0191L20.6891 10.6026L20.6891 10.6024C20.759 10.2205 20.7441 9.82778 20.6454 9.45219C20.5468 9.0766 20.3668 8.72728 20.1182 8.42896C19.8696 8.13063 19.5584 7.89059 19.2068 7.72582C18.8552 7.56106 18.4716 7.47558 18.0833 7.47545C18.0833 7.47545 18.0833 7.47545 18.0833 7.47545H13.9033H13.7568L13.8102 7.33898L14.3229 6.02975C14.323 6.02948 14.3231 6.02921 14.3232 6.02894M16.9191 19.1921L10.1079 1.54048M14.3232 6.02894C14.5309 5.47039 14.6 4.86981 14.5247 4.27868C14.4493 3.68727 14.2316 3.12296 13.8902 2.63416C13.5489 2.14537 13.094 1.74668 12.5647 1.47229C12.0354 1.1979 11.4475 1.05601 10.8513 1.05878L10.851 1.05878C10.6939 1.05911 10.5403 1.10474 10.4084 1.1902C10.2767 1.27564 10.1723 1.39725 10.1079 1.54048M14.3232 6.02894L10.1079 1.54048M8.81665 8.46339L8.82526 8.444L11.3186 2.834L11.3544 2.75334L11.4389 2.7789C11.7071 2.86004 11.9558 2.99524 12.1698 3.17615C12.3838 3.35706 12.5584 3.57986 12.683 3.83083C12.8076 4.0818 12.8794 4.35562 12.8942 4.63542C12.9089 4.9152 12.8662 5.19504 12.7687 5.4577C12.7687 5.45772 12.7687 5.45773 12.7687 5.45775L12.2829 6.76853L12.2828 6.76878C12.1849 7.03074 12.1519 7.31248 12.1865 7.58997C12.2211 7.86747 12.3224 8.13247 12.4816 8.36236C12.6408 8.59224 12.8533 8.7802 13.1009 8.91017C13.3484 9.04012 13.6237 9.10826 13.9033 9.10878C13.9034 9.10878 13.9034 9.10878 13.9035 9.10878M8.81665 8.46339L13.9033 9.20878L13.9035 9.10878M8.81665 8.46339V8.48461L8.81665 17.4588V17.5588H8.91665H16.9184L8.81665 8.46339ZM13.9035 9.10878H18.0832M13.9035 9.10878H18.0832M18.0832 9.10878L18.0833 9.10878L18.0832 9.10878ZM18.8654 9.47407C18.8652 9.47383 18.865 9.47359 18.8648 9.47334L18.7891 9.53878L18.866 9.47478C18.8658 9.47454 18.8656 9.47431 18.8654 9.47407ZM7.18331 9.20878V9.10878H7.08331H5.24998C4.98034 9.10878 4.72175 9.21589 4.53109 9.40656C4.34042 9.59722 4.23331 9.85581 4.23331 10.1254V16.5421C4.23331 16.8118 4.34042 17.0703 4.53109 17.261C4.72175 17.4517 4.98034 17.5588 5.24998 17.5588L7.08331 17.5588H7.18331V17.4588L7.18331 9.20878Z" fill="#4C535D" stroke="white" stroke-width="0.2"/>
</g>
<defs>
<clipPath id="clip0_855_10523">
<rect width="22" height="22" fill="white" transform="matrix(-1 0 0 -1 22.6666 22.5)"/>
</clipPath>
</defs>
</svg>
