<svg width="93" height="36" viewBox="0 0 93 36" fill="none" xmlns="http://www.w3.org/2000/svg">
<g clip-path="url(#clip0_878_39710)">
<path d="M49.3764 31.8711H41.5332V34.6922H49.3764V31.8711Z" fill="#0F1113"/>
<path d="M57.7918 31.8142H54.9346V34.6922H57.7918V31.8142Z" fill="#0F1113"/>
<path d="M19.656 9.78979H16.7988V12.6677H19.656V9.78979Z" fill="#0F1113"/>
<path d="M24.2389 21.8728C24.2389 18.5292 21.5484 15.8191 18.2261 15.8191C14.9039 15.8191 12.2133 18.5292 12.2133 21.8728C12.2133 23.0045 12.5225 24.0631 13.0573 24.97H5.43183C4.69535 24.97 4.16046 24.9078 3.82985 24.7859C3.49924 24.6614 3.26808 24.4286 3.13637 24.0874C3.00467 23.7436 2.91059 23.175 2.85415 22.3737V22.0028L2.78964 9.79248H0.158203L0.222712 22.0028C0.297973 23.5053 0.50494 24.6804 0.846301 25.5251C1.18497 26.3725 1.71986 26.9843 2.44559 27.3661C3.17132 27.7478 4.16852 27.9373 5.43451 27.9373H18.2261V27.9292C18.8927 27.9292 19.5324 27.8209 20.1318 27.6179C21.508 27.1549 22.6638 26.2046 23.3922 24.97C23.9298 24.0631 24.2362 23.0045 24.2362 21.8728H24.2389ZM18.2261 24.97C16.5301 24.97 15.1512 23.5839 15.1512 21.8728C15.1512 20.1617 16.5274 18.7756 18.2261 18.7756C19.9249 18.7756 21.3011 20.1617 21.3011 21.8728C21.3011 23.5839 19.9249 24.97 18.2261 24.97Z" fill="#0F1113"/>
<path d="M61.5203 20.9468L60.5419 17.2756C60.4559 16.9561 60.1279 16.7693 59.8134 16.8614L58.3916 17.2756C58.0851 17.365 57.9051 17.6844 57.9884 17.9958L58.9721 21.6886C59.1979 22.5252 59.2275 23.1858 59.0582 23.6704C58.8888 24.1551 58.5663 24.4935 58.0959 24.683C57.6228 24.8725 57.0288 24.9673 56.3111 24.9673H52.8384C52.7551 24.9673 52.6798 24.9646 52.6046 24.9619C52.3841 24.9537 52.1826 24.9375 52.0078 24.9077C51.9998 24.9077 51.9917 24.9077 51.9837 24.905C51.9165 24.8942 51.8573 24.8806 51.7982 24.8644C51.7847 24.8617 51.7713 24.859 51.7606 24.8563C51.7659 24.8563 51.774 24.859 51.7821 24.8617C51.7767 24.8617 51.7686 24.859 51.7606 24.8563C51.7391 24.8509 51.7202 24.8454 51.6987 24.8373C51.6853 24.8319 51.6719 24.8292 51.6584 24.8238C51.653 24.8238 51.6504 24.8211 51.645 24.8184C51.6262 24.813 51.6073 24.8048 51.5885 24.7994C51.5832 24.7994 51.5778 24.794 51.5724 24.794C51.5805 24.9375 51.5858 25.0837 51.5858 25.2299C51.5858 26.1071 51.4246 26.9491 51.1289 27.7207C51.5617 27.8398 52.0401 27.9075 52.5562 27.9264V27.9346H56.3138C57.561 27.9346 58.6496 27.6584 59.585 27.1061C60.5204 26.5538 61.1708 25.7497 61.5391 24.6938C61.9073 23.638 61.9019 22.3871 61.5256 20.9414L61.5203 20.9468ZM52.2282 24.9402C52.2067 24.9402 52.1852 24.9348 52.1664 24.9321C52.118 24.9267 52.0724 24.9185 52.0267 24.9104C52.0912 24.9212 52.1557 24.9294 52.2282 24.9375V24.9402ZM52.3492 27.921C52.4137 27.9264 52.4836 27.9264 52.5508 27.9291C52.4836 27.9291 52.4164 27.9264 52.3492 27.921Z" fill="#0F1113"/>
<path d="M50.4857 24.0115C50.4938 23.9357 50.5018 23.8599 50.5072 23.7841C50.5099 23.7327 50.5153 23.684 50.518 23.6325C50.5233 23.5513 50.5233 23.4701 50.5233 23.3888C50.5233 23.3401 50.5233 23.2887 50.5233 23.2399C50.5233 23.1425 50.518 23.045 50.5126 22.9448C50.5126 22.9123 50.5126 22.8826 50.5099 22.8501C50.5099 22.8501 50.5099 22.8365 50.5099 22.8311L50.2519 19.9153C50.2223 19.5877 49.9347 19.3494 49.6122 19.3792L48.1446 19.5227C47.8247 19.5552 47.5882 19.8395 47.6177 20.1617L47.8785 23.0883C47.9537 23.7164 47.8086 24.1875 47.4403 24.5016C47.0721 24.8156 46.4539 24.9727 45.5857 24.9727H39.5245C38.9386 24.9727 38.2827 24.905 37.9817 24.7723C37.6806 24.6397 37.4522 24.4258 37.3017 24.1307C37.1511 23.8356 37.0463 23.4051 36.9899 22.8365C36.9899 22.8365 36.9899 22.8365 36.9899 22.8338L36.7291 19.9153C36.6996 19.5904 36.412 19.3494 36.0894 19.3819L34.6218 19.5254C34.302 19.5579 34.0654 19.8422 34.095 20.1644L34.3557 23.091C34.3584 23.1181 34.3611 23.1452 34.3638 23.1696C34.4176 23.7571 34.2697 24.2011 33.9176 24.5016C33.5494 24.8156 32.9312 24.9727 32.063 24.9727H24.639C24.3434 26.0827 23.8031 27.0925 23.0801 27.9399H32.063C33.1381 27.9399 34.0601 27.7261 34.8234 27.2983C35.1594 27.1088 35.4605 26.8868 35.7212 26.6323C35.7481 26.6594 35.7723 26.6864 35.7991 26.7135C36.5491 27.4526 37.7478 27.856 39.0837 27.9264L39.1429 27.9291C39.2181 27.9318 39.2934 27.9345 39.3686 27.9372H39.4493H45.5803C46.6555 27.9372 47.5774 27.7234 48.3435 27.2956C48.6821 27.1061 48.9778 26.8814 49.2412 26.6269C49.2627 26.6079 49.2815 26.5863 49.3004 26.5646C49.3245 26.5375 49.3514 26.5132 49.3756 26.4861C49.4213 26.4374 49.4643 26.3859 49.5073 26.3345C49.5261 26.3128 49.545 26.2912 49.5638 26.2695C49.5718 26.2587 49.5799 26.2505 49.588 26.2397C49.6095 26.2099 49.631 26.1829 49.6552 26.1531C49.6713 26.1341 49.682 26.1125 49.6955 26.0908C49.7304 26.0421 49.7654 25.9879 49.8003 25.9365C49.8326 25.8878 49.8648 25.8417 49.8917 25.7903C49.9293 25.7253 49.9669 25.6576 50.0019 25.5872C50.018 25.5548 50.0395 25.525 50.0556 25.4898C50.1013 25.3977 50.1417 25.303 50.1793 25.2082C50.1874 25.1893 50.1927 25.1703 50.2008 25.1514C50.2304 25.0755 50.2572 24.9997 50.2841 24.9212C50.2922 24.8942 50.3002 24.8671 50.3083 24.84C50.3298 24.7669 50.3513 24.6938 50.3701 24.6207C50.3782 24.5909 50.3836 24.5639 50.3916 24.5341C50.397 24.5097 50.4051 24.488 50.4078 24.4637C50.4158 24.4312 50.4185 24.396 50.4239 24.3635C50.4373 24.2931 50.4508 24.2227 50.4615 24.1523C50.4696 24.1036 50.475 24.0522 50.483 24.0034L50.4857 24.0115Z" fill="#0F1113"/>
<path d="M36.8102 9.78979H27.0371V13.1497H36.8102V9.78979Z" fill="#ED9208"/>
<path d="M91.0218 17.403H77.6389V4.49154C77.6389 4.4401 77.6792 4.39949 77.7303 4.39949C77.7545 4.39949 77.7787 4.41032 77.7948 4.42656L86.9712 13.5694L89.0382 11.463L78.155 0.617282L78.0609 0.525231C77.7034 0.197639 77.2303 0 76.7089 0C75.6015 0 74.7037 0.904264 74.7037 2.0197V17.4057H70.6396V20.3622H74.7037V33.9803C74.7037 35.0957 75.6015 36 76.7089 36C77.2518 36 77.7464 35.7807 78.1093 35.4287L78.1953 35.3394L92.4142 20.8549C92.7448 20.5219 92.9598 20.0725 92.9948 19.5743C92.9974 19.5256 93.0001 19.4769 93.0001 19.4254C93.0001 18.3181 92.1185 17.4193 91.0218 17.403ZM88.6054 20.5192L77.8028 31.5193C77.8028 31.5193 77.8029 31.522 77.7975 31.5247C77.7813 31.541 77.7598 31.5491 77.733 31.5491C77.6819 31.5491 77.6416 31.5085 77.6416 31.457V20.3622H88.5409C88.592 20.3622 88.6323 20.4028 88.6323 20.4542C88.6323 20.4786 88.6216 20.503 88.6054 20.5192Z" fill="#0F1113"/>
<path d="M74.7008 17.4058H70.6367V20.3622H74.7008V17.4058Z" fill="#ED9208"/>
</g>
<defs>
<clipPath id="clip0_878_39710">
<rect width="92.8421" height="36" fill="white" transform="translate(0.158203)"/>
</clipPath>
</defs>
</svg>
