<svg width="150" height="57" viewBox="0 0 150 57" fill="none" xmlns="http://www.w3.org/2000/svg">
<g clip-path="url(#clip0_878_39956)">
<path d="M79.5186 50.4629H66.8467V54.9296H79.5186V50.4629Z" fill="#F2F3F5"/>
<path d="M93.1153 50.3726H88.499V54.9293H93.1153V50.3726Z" fill="#F2F3F5"/>
<path d="M31.502 15.5005H26.8857V20.0572H31.502V15.5005Z" fill="#F2F3F5"/>
<path d="M38.9059 34.6321C38.9059 29.338 34.5589 25.047 29.1914 25.047C23.8239 25.047 19.4769 29.338 19.4769 34.6321C19.4769 36.4239 19.9763 38.1 20.8405 39.536H8.52031C7.33042 39.536 6.46623 39.4374 5.93208 39.2445C5.39793 39.0473 5.02446 38.6787 4.81167 38.1386C4.59888 37.5942 4.44689 36.6939 4.35569 35.4251V34.8378L4.25147 15.5049H0L0.104224 34.8378C0.225819 37.2169 0.560204 39.0773 1.11172 40.4148C1.6589 41.7565 2.52309 42.7253 3.69561 43.3297C4.86813 43.9342 6.47926 44.2342 8.52465 44.2342H29.1914V44.2214C30.2684 44.2214 31.3019 44.0499 32.2703 43.7284C34.4938 42.9954 36.3611 41.4907 37.538 39.536C38.4065 38.1 38.9016 36.4239 38.9016 34.6321H38.9059ZM29.1914 39.536C26.4512 39.536 24.2234 37.3412 24.2234 34.6321C24.2234 31.9229 26.4468 29.7281 29.1914 29.7281C31.936 29.7281 34.1594 31.9229 34.1594 34.6321C34.1594 37.3412 31.936 39.536 29.1914 39.536Z" fill="#F2F3F5"/>
<path d="M99.1383 33.166L97.5576 27.3532C97.4187 26.8474 96.8889 26.5516 96.3808 26.6974L94.0835 27.3532C93.5884 27.4947 93.2975 28.0005 93.4321 28.4935L95.0215 34.3405C95.3863 35.6651 95.4341 36.711 95.1605 37.4784C94.8869 38.2457 94.3658 38.7815 93.6058 39.0816C92.8415 39.3816 91.8818 39.5317 90.7223 39.5317H85.1115C84.9769 39.5317 84.8553 39.5274 84.7337 39.5231C84.3776 39.5102 84.0519 39.4845 83.7697 39.4374C83.7566 39.4374 83.7436 39.4374 83.7306 39.4331C83.622 39.4159 83.5265 39.3945 83.4309 39.3688C83.4092 39.3645 83.3875 39.3602 83.3701 39.3559C83.3788 39.3559 83.3918 39.3602 83.4049 39.3645C83.3962 39.3645 83.3832 39.3602 83.3701 39.3559C83.3354 39.3473 83.305 39.3388 83.2703 39.3259C83.2485 39.3173 83.2268 39.3131 83.2051 39.3045C83.1964 39.3045 83.1921 39.3002 83.1834 39.2959C83.153 39.2873 83.1226 39.2745 83.0922 39.2659C83.0835 39.2659 83.0748 39.2573 83.0661 39.2573C83.0792 39.4845 83.0879 39.716 83.0879 39.9475C83.0879 41.3364 82.8273 42.6695 82.3496 43.8912C83.0488 44.0798 83.8218 44.187 84.6556 44.217V44.2299H90.7266C92.7416 44.2299 94.5004 43.7926 96.0116 42.9182C97.5229 42.0437 98.5738 40.7705 99.1688 39.0987C99.7637 37.4269 99.755 35.4465 99.147 33.1574L99.1383 33.166ZM84.1258 39.4888C84.091 39.4888 84.0563 39.4802 84.0259 39.4759C83.9477 39.4674 83.8739 39.4545 83.8001 39.4417C83.9043 39.4588 84.0085 39.4717 84.1258 39.4845V39.4888ZM84.3212 44.2084C84.4254 44.217 84.5383 44.217 84.6469 44.2213C84.5383 44.2213 84.4297 44.217 84.3212 44.2084Z" fill="#F2F3F5"/>
<path d="M81.312 38.0187C81.325 37.8986 81.3381 37.7786 81.3467 37.6586C81.3511 37.5771 81.3598 37.5 81.3641 37.4185C81.3728 37.2899 81.3728 37.1613 81.3728 37.0327C81.3728 36.9556 81.3728 36.8741 81.3728 36.797C81.3728 36.6426 81.3641 36.4883 81.3554 36.3297C81.3554 36.2783 81.3554 36.2311 81.3511 36.1797C81.3511 36.1797 81.3511 36.1582 81.3511 36.1497L80.9342 31.5329C80.8864 31.0142 80.4218 30.637 79.9006 30.6842L77.5295 30.9113C77.0128 30.9628 76.6306 31.4129 76.6784 31.923L77.0996 36.5569C77.2212 37.5514 76.9867 38.2973 76.3918 38.7946C75.7968 39.2918 74.798 39.5404 73.3953 39.5404H63.6026C62.6559 39.5404 61.5963 39.4333 61.1099 39.2232C60.6235 39.0132 60.2544 38.6745 60.0112 38.2073C59.768 37.74 59.5987 37.0584 59.5075 36.1582C59.5075 36.1582 59.5075 36.1582 59.5075 36.154L59.0862 31.5329C59.0385 31.0185 58.5738 30.637 58.0527 30.6884L55.6816 30.9156C55.1648 30.9671 54.7827 31.4172 54.8304 31.9273L55.2517 36.5612C55.256 36.6041 55.2603 36.6469 55.2647 36.6855C55.3515 37.6157 55.1127 38.3187 54.5438 38.7946C53.9489 39.2918 52.95 39.5404 51.5474 39.5404H39.5529C39.0752 41.298 38.2024 42.8969 37.0342 44.2386H51.5474C53.2844 44.2386 54.774 43.9 56.0073 43.2227C56.5501 42.9226 57.0365 42.5711 57.4577 42.1682C57.5012 42.211 57.5402 42.2539 57.5837 42.2968C58.7953 43.467 60.7321 44.1058 62.8904 44.2172L62.9859 44.2215C63.1075 44.2258 63.2291 44.2301 63.3507 44.2344H63.481H73.3866C75.1237 44.2344 76.6132 43.8957 77.8509 43.2184C78.3981 42.9183 78.8758 42.5625 79.3013 42.1596C79.3361 42.1296 79.3665 42.0953 79.3969 42.061C79.436 42.0181 79.4794 41.9796 79.5185 41.9367C79.5923 41.8595 79.6618 41.7781 79.7313 41.6966C79.7617 41.6623 79.7921 41.6281 79.8225 41.5938C79.8355 41.5766 79.8485 41.5638 79.8615 41.5466C79.8963 41.4994 79.931 41.4566 79.9701 41.4094C79.9962 41.3794 80.0135 41.3451 80.0353 41.3108C80.0917 41.2337 80.1482 41.1479 80.2046 41.0665C80.2567 40.9893 80.3088 40.9165 80.3523 40.835C80.4131 40.7321 80.4739 40.625 80.5303 40.5135C80.5564 40.4621 80.5911 40.4149 80.6172 40.3592C80.691 40.2134 80.7561 40.0634 80.8169 39.9134C80.83 39.8834 80.8386 39.8534 80.8517 39.8234C80.8994 39.7033 80.9429 39.5833 80.9863 39.459C80.9993 39.4161 81.0124 39.3733 81.0254 39.3304C81.0601 39.2147 81.0949 39.0989 81.1253 38.9832C81.1383 38.936 81.147 38.8932 81.16 38.846C81.1687 38.8074 81.1817 38.7731 81.1861 38.7345C81.1991 38.6831 81.2034 38.6274 81.2121 38.5759C81.2338 38.4645 81.2555 38.353 81.2729 38.2416C81.2859 38.1644 81.2946 38.083 81.3077 38.0058L81.312 38.0187Z" fill="#F2F3F5"/>
<path d="M59.2167 15.5005H43.4268V20.8203H59.2167V15.5005Z" fill="#CF8007"/>
<path d="M146.804 27.5548H125.182V7.1116C125.182 7.03016 125.247 6.96586 125.33 6.96586C125.369 6.96586 125.408 6.983 125.434 7.00872L140.26 21.4848L143.6 18.1498L126.016 0.977363L125.864 0.831616C125.287 0.312928 124.522 0 123.68 0C121.891 0 120.44 1.43175 120.44 3.19786V27.5591H113.874V32.2401H120.44V53.8021C120.44 55.5682 121.891 57 123.68 57C124.557 57 125.356 56.6528 125.942 56.0955L126.081 55.954L149.054 33.0203C149.588 32.493 149.936 31.7815 149.992 30.9927C149.996 30.9155 150.001 30.8384 150.001 30.7569C150.001 29.0037 148.576 27.5805 146.804 27.5548ZM142.9 32.4888L125.447 49.9055C125.447 49.9055 125.447 49.9098 125.439 49.9141C125.412 49.9398 125.378 49.9527 125.334 49.9527C125.252 49.9527 125.187 49.8884 125.187 49.8069V32.2401H142.796C142.879 32.2401 142.944 32.3044 142.944 32.3859C142.944 32.4245 142.926 32.463 142.9 32.4888Z" fill="#F2F3F5"/>
<path d="M120.435 27.5591H113.869V32.2401H120.435V27.5591Z" fill="#ED9208"/>
</g>
<defs>
<clipPath id="clip0_878_39956">
<rect width="150" height="57" fill="white"/>
</clipPath>
</defs>
</svg>
