<svg width="16" height="16" viewBox="0 0 16 16" fill="none" xmlns="http://www.w3.org/2000/svg">
<g clip-path="url(#clip0_873_33518)">
<path d="M6.99964 8.99999L13.9996 1.99999M7.08469 9.2187L8.83677 13.724C8.99112 14.1209 9.06829 14.3194 9.17949 14.3773C9.27589 14.4275 9.39073 14.4276 9.48719 14.3775C9.59846 14.3197 9.67586 14.1213 9.83068 13.7246L14.2242 2.46612C14.364 2.108 14.4339 1.92894 14.3956 1.81453C14.3625 1.71516 14.2845 1.63718 14.1851 1.60399C14.0707 1.56576 13.8916 1.63564 13.5335 1.77539L2.27501 6.16895C1.8783 6.32377 1.67994 6.40118 1.62213 6.51245C1.57202 6.60891 1.57209 6.72374 1.62231 6.82014C1.68025 6.93134 1.8787 7.00852 2.27559 7.16286L6.78093 8.91494C6.8615 8.94627 6.90178 8.96194 6.9357 8.98613C6.96576 9.00758 6.99206 9.03387 7.0135 9.06393C7.0377 9.09785 7.05336 9.13814 7.08469 9.2187Z" stroke="#0F1113" stroke-width="1.3" stroke-linecap="round" stroke-linejoin="round"/>
</g>
<defs>
<clipPath id="clip0_873_33518">
<rect width="16" height="16" fill="white"/>
</clipPath>
</defs>
</svg>
