<svg width="21" height="20" viewBox="0 0 21 20" fill="none" xmlns="http://www.w3.org/2000/svg">
<path d="M12.8766 19.5C12.4124 19.4992 11.9671 19.316 11.6366 18.99L7.91663 15.5H3.91663C3.05548 15.4974 2.23032 15.1541 1.6214 14.5452C1.01248 13.9363 0.669263 13.1111 0.666626 12.25V3.75C0.669263 2.88886 1.01248 2.06374 1.6214 1.45481C2.23032 0.845892 3.05548 0.502638 3.91663 0.5H17.4166C18.2778 0.502638 19.1029 0.845892 19.7118 1.45481C20.3207 2.06374 20.664 2.88886 20.6666 3.75V12.25C20.664 13.1111 20.3207 13.9363 19.7118 14.5452C19.1029 15.1541 18.2778 15.4974 17.4166 15.5H14.6166V17.75C14.6173 18.0966 14.515 18.4356 14.3227 18.7241C14.1304 19.0125 13.8568 19.2373 13.5366 19.37C13.327 19.4551 13.1029 19.4993 12.8766 19.5ZM3.92664 2C3.46332 2.00263 3.0197 2.18784 2.69208 2.51546C2.36446 2.84308 2.17926 3.28668 2.17664 3.75V12.25C2.17664 12.7141 2.36096 13.1592 2.68915 13.4874C3.01734 13.8156 3.46251 14 3.92664 14H8.22662C8.42547 14.0002 8.61607 14.0793 8.75659 14.22L12.6966 17.93C12.7374 17.9593 12.7864 17.9751 12.8366 17.9751C12.8868 17.9751 12.9358 17.9593 12.9766 17.93C13.0213 17.9105 13.0593 17.8783 13.086 17.8374C13.1127 17.7966 13.1268 17.7488 13.1266 17.7V14.7C13.1292 14.5019 13.209 14.3126 13.3491 14.1725C13.4892 14.0324 13.6785 13.9526 13.8766 13.95H17.4266C17.8908 13.95 18.3359 13.7656 18.6641 13.4374C18.9923 13.1092 19.1766 12.6641 19.1766 12.2V3.7C19.1766 3.23587 18.9923 2.79075 18.6641 2.46256C18.3359 2.13437 17.8908 1.95 17.4266 1.95L3.92664 2Z" fill="#4C535D"/>
</svg>
