<svg width="49" height="49" viewBox="0 0 49 49" fill="none" xmlns="http://www.w3.org/2000/svg">
<path d="M24.166 42.8672C34.1071 42.8672 42.166 34.8083 42.166 24.8672C42.166 14.9261 34.1071 6.86719 24.166 6.86719C14.2249 6.86719 6.16602 14.9261 6.16602 24.8672C6.16602 34.8083 14.2249 42.8672 24.166 42.8672Z" fill="url(#paint0_linear_858_27447)"/>
<path d="M20.8658 33.1172C20.2827 33.1172 20.3818 32.897 20.1806 32.3418L18.4658 26.6981L31.6658 18.8672" fill="#C8DAEA"/>
<path d="M20.8662 33.1173C21.3162 33.1173 21.515 32.9115 21.7662 32.6673L24.1662 30.3336L21.1725 28.5283" fill="#A9C9DD"/>
<path d="M21.1721 28.5288L28.4261 33.8881C29.2539 34.3449 29.8513 34.1084 30.0575 33.1196L33.0102 19.2052C33.3125 17.9931 32.5482 17.4434 31.7563 17.8029L14.4178 24.4886C13.2343 24.9633 13.2412 25.6236 14.2021 25.9178L18.6516 27.3065L28.9525 20.8078C29.4388 20.5129 29.8851 20.6714 29.5188 20.9965" fill="url(#paint1_linear_858_27447)"/>
<defs>
<linearGradient id="paint0_linear_858_27447" x1="30.1672" y1="12.8684" x2="21.1672" y2="33.8672" gradientUnits="userSpaceOnUse">
<stop stop-color="#37AEE2"/>
<stop offset="1" stop-color="#1E96C8"/>
</linearGradient>
<linearGradient id="paint1_linear_858_27447" x1="26.4168" y1="24.8671" x2="29.2337" y2="31.2771" gradientUnits="userSpaceOnUse">
<stop stop-color="#EFF7FC"/>
<stop offset="1" stop-color="white"/>
</linearGradient>
</defs>
</svg>
