<svg width="49" height="49" viewBox="0 0 49 49" fill="none" xmlns="http://www.w3.org/2000/svg">
<path fill-rule="evenodd" clip-rule="evenodd" d="M39.7093 17.0449C39.7228 17.3947 39.7273 17.7443 39.7273 18.0941C39.7273 28.6985 32.2677 40.9407 18.6265 40.9407C14.4362 40.9407 10.5398 39.6051 7.25684 37.3316C7.83715 37.3952 8.42652 37.443 9.02492 37.443C12.4993 37.443 15.6993 36.155 18.2376 33.9928C14.9924 33.9451 12.2521 31.608 11.307 28.4282C11.7607 28.5236 12.2279 28.5715 12.7058 28.5715C13.3795 28.5715 14.0337 28.4762 14.6607 28.2854C11.2648 27.5541 8.70688 24.3108 8.70688 20.4156C8.70688 20.3679 8.70688 20.352 8.70688 20.3202C9.70773 20.9084 10.8533 21.2739 12.0697 21.3216C10.077 19.8748 8.76714 17.4106 8.76714 14.6283C8.76714 13.1656 9.13191 11.7824 9.77402 10.59C13.4308 15.455 18.8978 18.6507 25.0612 18.9845C24.9346 18.3963 24.8698 17.7764 24.8698 17.1563C24.8698 12.7206 28.1904 9.12744 32.2872 9.12744C34.4201 9.12744 36.3464 10.0974 37.6985 11.6555C39.3912 11.3057 40.9769 10.638 42.4119 9.71588C41.8557 11.5919 40.6815 13.1656 39.147 14.1513C40.6483 13.9605 42.0803 13.5316 43.4082 12.8956C42.4119 14.5014 41.1578 15.9161 39.7093 17.0449Z" fill="#1EA1F2"/>
</svg>
