<svg width="49" height="49" viewBox="0 0 49 49" fill="none" xmlns="http://www.w3.org/2000/svg">
<path d="M43.5818 14.6792C43.1148 12.9444 41.747 11.5766 40.0122 11.1096C36.843 10.2422 24.1659 10.2422 24.1659 10.2422C24.1659 10.2422 11.4889 10.2422 8.31962 11.0762C6.61823 11.5433 5.21708 12.9444 4.75003 14.6792C3.91602 17.8484 3.91602 24.4205 3.91602 24.4205C3.91602 24.4205 3.91602 31.0259 4.75003 34.1618C5.21708 35.8965 6.58487 37.2643 8.31962 37.7314C11.5222 38.5987 24.1659 38.5987 24.1659 38.5987C24.1659 38.5987 36.843 38.5987 40.0122 37.7647C41.747 37.2977 43.1148 35.9299 43.5818 34.1951C44.4158 31.0259 44.4158 24.4538 44.4158 24.4538C44.4158 24.4538 44.4492 17.8484 43.5818 14.6792Z" fill="#FF0000"/>
<path d="M20.1289 30.2605L30.6709 24.1888L20.1289 18.1172V30.2605Z" fill="white"/>
</svg>
